<svg width="60" height="60" viewBox="0 0 60 60" fill="none" xmlns="http://www.w3.org/2000/svg">
<rect width="60" height="60" fill="#012169"/>
<g clip-path="url(#clip0_150_832)">
<path d="M30.3298 40.9046C36.8377 35.436 45.9796 30.1194 50.9999 28.2054C50.2252 27.7193 49.0166 27.0205 47.653 26.261C41.1762 28.3573 33.6147 33.0056 26.859 38.2615C28.0056 39.1121 29.2142 39.9932 30.3298 40.9046Z" fill="#E31837"/>
<path d="M27.3549 26.0484C26.3942 25.5926 25.3406 25.1673 24.5348 24.8027C22.0866 25.9876 18.8947 27.7801 14.8661 30.6055C15.7338 31.0612 16.6635 31.6081 17.6552 32.1549C20.7541 29.9067 23.8841 27.7801 27.3549 26.0484Z" fill="white"/>
<path d="M33.1499 23.4356C31.9723 22.7976 27.8817 21.3089 25.0616 20.6709C24.2249 20.9747 23.0473 21.4304 22.2416 21.7646C23.2642 22.038 27.0759 23.0406 30.3299 24.6508C31.1666 24.2559 32.3442 23.7698 33.1499 23.4356Z" fill="#E31837"/>
<path d="M19.2976 23.0406C15.6718 24.6812 11.8601 26.9294 9.78381 28.2358C10.5276 28.57 11.2713 28.8434 12.294 29.3295C16.8804 26.2914 20.4752 24.4382 21.9007 23.8306C20.8781 23.466 19.9174 23.2229 19.2976 23.0406Z" fill="white"/>
<path d="M35.877 22.4938C36.7137 22.2204 37.6744 21.9773 38.5111 21.7343C36.0939 20.7317 33.0569 19.6684 30.3298 19C29.896 19.1215 28.5944 19.4557 27.6957 19.7291C28.6254 20.0026 31.6934 20.7013 35.877 22.4938ZM20.5991 33.917C21.5908 34.4943 22.6444 35.2842 23.6671 35.9526C30.4538 30.7878 37.1476 26.8079 44.4921 24.5597C43.4694 24.0432 42.5707 23.5875 41.4241 23.0407C37.0236 24.1344 29.4931 27.0813 20.5991 33.917Z" fill="#E31837"/>
</g>
<defs>
<clipPath id="clip0_150_832">
<rect width="42" height="22" fill="white" transform="translate(9 19)"/>
</clipPath>
</defs>
</svg>
