<svg width="60" height="60" viewBox="0 0 60 60" fill="none" xmlns="http://www.w3.org/2000/svg">
<rect width="60" height="60" fill="black"/>
<g clip-path="url(#clip0_147_232)">
<path d="M17.1667 26.2904C17.7036 26.2904 18.1389 25.8533 18.1389 25.3141C18.1389 24.775 17.7036 24.3379 17.1667 24.3379C16.6297 24.3379 16.1944 24.775 16.1944 25.3141C16.1944 25.8533 16.6297 26.2904 17.1667 26.2904Z" fill="white"/>
<path d="M17.1667 21.6045C17.7036 21.6045 18.1389 21.1674 18.1389 20.6283C18.1389 20.0891 17.7036 19.6521 17.1667 19.6521C16.6297 19.6521 16.1944 20.0891 16.1944 20.6283C16.1944 21.1674 16.6297 21.6045 17.1667 21.6045Z" fill="white"/>
<path d="M17.1667 16.7234C17.7036 16.7234 18.1389 16.2863 18.1389 15.7472C18.1389 15.208 17.7036 14.771 17.1667 14.771C16.6297 14.771 16.1944 15.208 16.1944 15.7472C16.1944 16.2863 16.6297 16.7234 17.1667 16.7234Z" fill="white"/>
<path d="M17.1667 12.0375C17.7036 12.0375 18.1389 11.6005 18.1389 11.0613C18.1389 10.5222 17.7036 10.0851 17.1667 10.0851C16.6297 10.0851 16.1944 10.5222 16.1944 11.0613C16.1944 11.6005 16.6297 12.0375 17.1667 12.0375Z" fill="white"/>
<path d="M20.8611 26.2904C21.3981 26.2904 21.8333 25.8533 21.8333 25.3141C21.8333 24.775 21.3981 24.3379 20.8611 24.3379C20.3242 24.3379 19.8889 24.775 19.8889 25.3141C19.8889 25.8533 20.3242 26.2904 20.8611 26.2904Z" fill="white"/>
<path d="M20.8611 21.6045C21.3981 21.6045 21.8333 21.1674 21.8333 20.6283C21.8333 20.0891 21.3981 19.6521 20.8611 19.6521C20.3242 19.6521 19.8889 20.0891 19.8889 20.6283C19.8889 21.1674 20.3242 21.6045 20.8611 21.6045Z" fill="white"/>
<path d="M20.8611 16.7234C21.3981 16.7234 21.8333 16.2863 21.8333 15.7472C21.8333 15.208 21.3981 14.771 20.8611 14.771C20.3242 14.771 19.8889 15.208 19.8889 15.7472C19.8889 16.2863 20.3242 16.7234 20.8611 16.7234Z" fill="white"/>
<path d="M20.8611 12.0375C21.3981 12.0375 21.8333 11.6005 21.8333 11.0613C21.8333 10.5222 21.3981 10.0851 20.8611 10.0851C20.3242 10.0851 19.8889 10.5222 19.8889 11.0613C19.8889 11.6005 20.3242 12.0375 20.8611 12.0375Z" fill="white"/>
<path d="M24.5556 26.2904C25.0925 26.2904 25.5278 25.8533 25.5278 25.3141C25.5278 24.775 25.0925 24.3379 24.5556 24.3379C24.0186 24.3379 23.5833 24.775 23.5833 25.3141C23.5833 25.8533 24.0186 26.2904 24.5556 26.2904Z" fill="white"/>
<path d="M24.5556 21.6045C25.0925 21.6045 25.5278 21.1674 25.5278 20.6283C25.5278 20.0891 25.0925 19.6521 24.5556 19.6521C24.0186 19.6521 23.5833 20.0891 23.5833 20.6283C23.5833 21.1674 24.0186 21.6045 24.5556 21.6045Z" fill="white"/>
<path d="M24.5556 16.7234C25.0925 16.7234 25.5278 16.2863 25.5278 15.7472C25.5278 15.208 25.0925 14.771 24.5556 14.771C24.0186 14.771 23.5833 15.208 23.5833 15.7472C23.5833 16.2863 24.0186 16.7234 24.5556 16.7234Z" fill="white"/>
<path d="M24.5556 12.0375C25.0925 12.0375 25.5278 11.6005 25.5278 11.0613C25.5278 10.5222 25.0925 10.0851 24.5556 10.0851C24.0186 10.0851 23.5833 10.5222 23.5833 11.0613C23.5833 11.6005 24.0186 12.0375 24.5556 12.0375Z" fill="white"/>
<path d="M28.25 26.2904C28.787 26.2904 29.2222 25.8533 29.2222 25.3141C29.2222 24.775 28.787 24.3379 28.25 24.3379C27.7131 24.3379 27.2778 24.775 27.2778 25.3141C27.2778 25.8533 27.7131 26.2904 28.25 26.2904Z" fill="white"/>
<path d="M31.75 26.2904C32.2869 26.2904 32.7222 25.8533 32.7222 25.3141C32.7222 24.775 32.2869 24.3379 31.75 24.3379C31.213 24.3379 30.7778 24.775 30.7778 25.3141C30.7778 25.8533 31.213 26.2904 31.75 26.2904Z" fill="white"/>
<path d="M31.75 21.6045C32.2869 21.6045 32.7222 21.1674 32.7222 20.6283C32.7222 20.0891 32.2869 19.6521 31.75 19.6521C31.213 19.6521 30.7778 20.0891 30.7778 20.6283C30.7778 21.1674 31.213 21.6045 31.75 21.6045Z" fill="white"/>
<path d="M31.75 16.7234C32.2869 16.7234 32.7222 16.2863 32.7222 15.7472C32.7222 15.208 32.2869 14.771 31.75 14.771C31.213 14.771 30.7778 15.208 30.7778 15.7472C30.7778 16.2863 31.213 16.7234 31.75 16.7234Z" fill="white"/>
<path d="M31.75 12.0375C32.2869 12.0375 32.7222 11.6005 32.7222 11.0613C32.7222 10.5222 32.2869 10.0851 31.75 10.0851C31.213 10.0851 30.7778 10.5222 30.7778 11.0613C30.7778 11.6005 31.213 12.0375 31.75 12.0375Z" fill="white"/>
<path d="M35.4444 26.2904C35.9814 26.2904 36.4167 25.8533 36.4167 25.3141C36.4167 24.775 35.9814 24.3379 35.4444 24.3379C34.9075 24.3379 34.4722 24.775 34.4722 25.3141C34.4722 25.8533 34.9075 26.2904 35.4444 26.2904Z" fill="white"/>
<path d="M35.4444 21.6045C35.9814 21.6045 36.4167 21.1674 36.4167 20.6283C36.4167 20.0891 35.9814 19.6521 35.4444 19.6521C34.9075 19.6521 34.4722 20.0891 34.4722 20.6283C34.4722 21.1674 34.9075 21.6045 35.4444 21.6045Z" fill="white"/>
<path d="M35.4444 16.7234C35.9814 16.7234 36.4167 16.2863 36.4167 15.7472C36.4167 15.208 35.9814 14.771 35.4444 14.771C34.9075 14.771 34.4722 15.208 34.4722 15.7472C34.4722 16.2863 34.9075 16.7234 35.4444 16.7234Z" fill="white"/>
<path d="M35.4444 12.0375C35.9814 12.0375 36.4167 11.6005 36.4167 11.0613C36.4167 10.5222 35.9814 10.0851 35.4444 10.0851C34.9075 10.0851 34.4722 10.5222 34.4722 11.0613C34.4722 11.6005 34.9075 12.0375 35.4444 12.0375Z" fill="white"/>
<path d="M39.1389 26.2904C39.6758 26.2904 40.1111 25.8533 40.1111 25.3141C40.1111 24.775 39.6758 24.3379 39.1389 24.3379C38.602 24.3379 38.1667 24.775 38.1667 25.3141C38.1667 25.8533 38.602 26.2904 39.1389 26.2904Z" fill="white"/>
<path d="M39.1389 21.6045C39.6758 21.6045 40.1111 21.1674 40.1111 20.6283C40.1111 20.0891 39.6758 19.6521 39.1389 19.6521C38.602 19.6521 38.1667 20.0891 38.1667 20.6283C38.1667 21.1674 38.602 21.6045 39.1389 21.6045Z" fill="white"/>
<path d="M39.1389 16.7234C39.6758 16.7234 40.1111 16.2863 40.1111 15.7472C40.1111 15.208 39.6758 14.771 39.1389 14.771C38.602 14.771 38.1667 15.208 38.1667 15.7472C38.1667 16.2863 38.602 16.7234 39.1389 16.7234Z" fill="white"/>
<path d="M39.1389 12.0375C39.6758 12.0375 40.1111 11.6005 40.1111 11.0613C40.1111 10.5222 39.6758 10.0851 39.1389 10.0851C38.602 10.0851 38.1667 10.5222 38.1667 11.0613C38.1667 11.6005 38.602 12.0375 39.1389 12.0375Z" fill="white"/>
<path d="M42.8333 26.2904C43.3703 26.2904 43.8056 25.8533 43.8056 25.3141C43.8056 24.775 43.3703 24.3379 42.8333 24.3379C42.2964 24.3379 41.8611 24.775 41.8611 25.3141C41.8611 25.8533 42.2964 26.2904 42.8333 26.2904Z" fill="white"/>
<path d="M42.8333 21.6045C43.3703 21.6045 43.8056 21.1674 43.8056 20.6283C43.8056 20.0891 43.3703 19.6521 42.8333 19.6521C42.2964 19.6521 41.8611 20.0891 41.8611 20.6283C41.8611 21.1674 42.2964 21.6045 42.8333 21.6045Z" fill="white"/>
<path d="M42.8333 16.7234C43.3703 16.7234 43.8056 16.2863 43.8056 15.7472C43.8056 15.208 43.3703 14.771 42.8333 14.771C42.2964 14.771 41.8611 15.208 41.8611 15.7472C41.8611 16.2863 42.2964 16.7234 42.8333 16.7234Z" fill="white"/>
<path d="M28.25 21.6045C28.787 21.6045 29.2222 21.1674 29.2222 20.6283C29.2222 20.0891 28.787 19.6521 28.25 19.6521C27.7131 19.6521 27.2778 20.0891 27.2778 20.6283C27.2778 21.1674 27.7131 21.6045 28.25 21.6045Z" fill="white"/>
<path d="M28.25 16.7234C28.787 16.7234 29.2222 16.2863 29.2222 15.7472C29.2222 15.208 28.787 14.771 28.25 14.771C27.7131 14.771 27.2778 15.208 27.2778 15.7472C27.2778 16.2863 27.7131 16.7234 28.25 16.7234Z" fill="white"/>
<path d="M28.25 12.0375C28.787 12.0375 29.2222 11.6005 29.2222 11.0613C29.2222 10.5222 28.787 10.0851 28.25 10.0851C27.7131 10.0851 27.2778 10.5222 27.2778 11.0613C27.2778 11.6005 27.7131 12.0375 28.25 12.0375Z" fill="white"/>
<path d="M17.1667 30.9762C17.7036 30.9762 18.1389 30.5392 18.1389 30C18.1389 29.4609 17.7036 29.0238 17.1667 29.0238C16.6297 29.0238 16.1944 29.4609 16.1944 30C16.1944 30.5392 16.6297 30.9762 17.1667 30.9762Z" fill="white"/>
<path d="M17.1667 35.6621C17.7036 35.6621 18.1389 35.225 18.1389 34.6859C18.1389 34.1467 17.7036 33.7096 17.1667 33.7096C16.6297 33.7096 16.1944 34.1467 16.1944 34.6859C16.1944 35.225 16.6297 35.6621 17.1667 35.6621Z" fill="white"/>
<path d="M17.1667 40.3479C17.7036 40.3479 18.1389 39.9109 18.1389 39.3717C18.1389 38.8326 17.7036 38.3955 17.1667 38.3955C16.6297 38.3955 16.1944 38.8326 16.1944 39.3717C16.1944 39.9109 16.6297 40.3479 17.1667 40.3479Z" fill="white"/>
<path d="M17.1667 45.229C17.7036 45.229 18.1389 44.792 18.1389 44.2528C18.1389 43.7136 17.7036 43.2766 17.1667 43.2766C16.6297 43.2766 16.1944 43.7136 16.1944 44.2528C16.1944 44.792 16.6297 45.229 17.1667 45.229Z" fill="white"/>
<path d="M17.1667 49.9149C17.7036 49.9149 18.1389 49.4778 18.1389 48.9387C18.1389 48.3995 17.7036 47.9624 17.1667 47.9624C16.6297 47.9624 16.1944 48.3995 16.1944 48.9387C16.1944 49.4778 16.6297 49.9149 17.1667 49.9149Z" fill="white"/>
<path d="M20.8611 30.9762C21.3981 30.9762 21.8333 30.5392 21.8333 30C21.8333 29.4609 21.3981 29.0238 20.8611 29.0238C20.3242 29.0238 19.8889 29.4609 19.8889 30C19.8889 30.5392 20.3242 30.9762 20.8611 30.9762Z" fill="white"/>
<path d="M20.8611 35.6621C21.3981 35.6621 21.8333 35.225 21.8333 34.6859C21.8333 34.1467 21.3981 33.7096 20.8611 33.7096C20.3242 33.7096 19.8889 34.1467 19.8889 34.6859C19.8889 35.225 20.3242 35.6621 20.8611 35.6621Z" fill="white"/>
<path d="M20.8611 40.3479C21.3981 40.3479 21.8333 39.9109 21.8333 39.3717C21.8333 38.8326 21.3981 38.3955 20.8611 38.3955C20.3242 38.3955 19.8889 38.8326 19.8889 39.3717C19.8889 39.9109 20.3242 40.3479 20.8611 40.3479Z" fill="white"/>
<path d="M20.8611 45.229C21.3981 45.229 21.8333 44.792 21.8333 44.2528C21.8333 43.7136 21.3981 43.2766 20.8611 43.2766C20.3242 43.2766 19.8889 43.7136 19.8889 44.2528C19.8889 44.792 20.3242 45.229 20.8611 45.229Z" fill="white"/>
<path d="M20.8611 49.9149C21.3981 49.9149 21.8333 49.4778 21.8333 48.9387C21.8333 48.3995 21.3981 47.9624 20.8611 47.9624C20.3242 47.9624 19.8889 48.3995 19.8889 48.9387C19.8889 49.4778 20.3242 49.9149 20.8611 49.9149Z" fill="white"/>
<path d="M24.5556 30.9762C25.0925 30.9762 25.5278 30.5392 25.5278 30C25.5278 29.4609 25.0925 29.0238 24.5556 29.0238C24.0186 29.0238 23.5833 29.4609 23.5833 30C23.5833 30.5392 24.0186 30.9762 24.5556 30.9762Z" fill="white"/>
<path d="M24.5556 35.6621C25.0925 35.6621 25.5278 35.225 25.5278 34.6859C25.5278 34.1467 25.0925 33.7096 24.5556 33.7096C24.0186 33.7096 23.5833 34.1467 23.5833 34.6859C23.5833 35.225 24.0186 35.6621 24.5556 35.6621Z" fill="white"/>
<path d="M24.5556 40.3479C25.0925 40.3479 25.5278 39.9109 25.5278 39.3717C25.5278 38.8326 25.0925 38.3955 24.5556 38.3955C24.0186 38.3955 23.5833 38.8326 23.5833 39.3717C23.5833 39.9109 24.0186 40.3479 24.5556 40.3479Z" fill="white"/>
<path d="M24.5556 45.229C25.0925 45.229 25.5278 44.792 25.5278 44.2528C25.5278 43.7136 25.0925 43.2766 24.5556 43.2766C24.0186 43.2766 23.5833 43.7136 23.5833 44.2528C23.5833 44.792 24.0186 45.229 24.5556 45.229Z" fill="white"/>
<path d="M24.5556 49.9149C25.0925 49.9149 25.5278 49.4778 25.5278 48.9387C25.5278 48.3995 25.0925 47.9624 24.5556 47.9624C24.0186 47.9624 23.5833 48.3995 23.5833 48.9387C23.5833 49.4778 24.0186 49.9149 24.5556 49.9149Z" fill="white"/>
<path d="M28.25 30.9762C28.787 30.9762 29.2222 30.5392 29.2222 30C29.2222 29.4609 28.787 29.0238 28.25 29.0238C27.7131 29.0238 27.2778 29.4609 27.2778 30C27.2778 30.5392 27.7131 30.9762 28.25 30.9762Z" fill="white"/>
<path d="M28.25 35.6621C28.787 35.6621 29.2222 35.225 29.2222 34.6859C29.2222 34.1467 28.787 33.7096 28.25 33.7096C27.7131 33.7096 27.2778 34.1467 27.2778 34.6859C27.2778 35.225 27.7131 35.6621 28.25 35.6621Z" fill="white"/>
<path d="M31.75 35.6621C32.2869 35.6621 32.7222 35.225 32.7222 34.6859C32.7222 34.1467 32.2869 33.7096 31.75 33.7096C31.213 33.7096 30.7778 34.1467 30.7778 34.6859C30.7778 35.225 31.213 35.6621 31.75 35.6621Z" fill="white"/>
<path d="M31.75 40.3479C32.2869 40.3479 32.7222 39.9109 32.7222 39.3717C32.7222 38.8326 32.2869 38.3955 31.75 38.3955C31.213 38.3955 30.7778 38.8326 30.7778 39.3717C30.7778 39.9109 31.213 40.3479 31.75 40.3479Z" fill="white"/>
<path d="M31.75 45.229C32.2869 45.229 32.7222 44.792 32.7222 44.2528C32.7222 43.7136 32.2869 43.2766 31.75 43.2766C31.213 43.2766 30.7778 43.7136 30.7778 44.2528C30.7778 44.792 31.213 45.229 31.75 45.229Z" fill="white"/>
<path d="M31.75 49.9149C32.2869 49.9149 32.7222 49.4778 32.7222 48.9387C32.7222 48.3995 32.2869 47.9624 31.75 47.9624C31.213 47.9624 30.7778 48.3995 30.7778 48.9387C30.7778 49.4778 31.213 49.9149 31.75 49.9149Z" fill="white"/>
<path d="M35.4444 35.6621C35.9814 35.6621 36.4167 35.225 36.4167 34.6859C36.4167 34.1467 35.9814 33.7096 35.4444 33.7096C34.9075 33.7096 34.4722 34.1467 34.4722 34.6859C34.4722 35.225 34.9075 35.6621 35.4444 35.6621Z" fill="white"/>
<path d="M35.4444 40.3479C35.9814 40.3479 36.4167 39.9109 36.4167 39.3717C36.4167 38.8326 35.9814 38.3955 35.4444 38.3955C34.9075 38.3955 34.4722 38.8326 34.4722 39.3717C34.4722 39.9109 34.9075 40.3479 35.4444 40.3479Z" fill="white"/>
<path d="M35.4444 45.229C35.9814 45.229 36.4167 44.792 36.4167 44.2528C36.4167 43.7136 35.9814 43.2766 35.4444 43.2766C34.9075 43.2766 34.4722 43.7136 34.4722 44.2528C34.4722 44.792 34.9075 45.229 35.4444 45.229Z" fill="white"/>
<path d="M35.4444 49.9149C35.9814 49.9149 36.4167 49.4778 36.4167 48.9387C36.4167 48.3995 35.9814 47.9624 35.4444 47.9624C34.9075 47.9624 34.4722 48.3995 34.4722 48.9387C34.4722 49.4778 34.9075 49.9149 35.4444 49.9149Z" fill="white"/>
<path d="M39.1389 35.6621C39.6758 35.6621 40.1111 35.225 40.1111 34.6859C40.1111 34.1467 39.6758 33.7096 39.1389 33.7096C38.602 33.7096 38.1667 34.1467 38.1667 34.6859C38.1667 35.225 38.602 35.6621 39.1389 35.6621Z" fill="white"/>
<path d="M39.1389 40.3479C39.6758 40.3479 40.1111 39.9109 40.1111 39.3717C40.1111 38.8326 39.6758 38.3955 39.1389 38.3955C38.602 38.3955 38.1667 38.8326 38.1667 39.3717C38.1667 39.9109 38.602 40.3479 39.1389 40.3479Z" fill="white"/>
<path d="M39.1389 45.229C39.6758 45.229 40.1111 44.792 40.1111 44.2528C40.1111 43.7136 39.6758 43.2766 39.1389 43.2766C38.602 43.2766 38.1667 43.7136 38.1667 44.2528C38.1667 44.792 38.602 45.229 39.1389 45.229Z" fill="white"/>
<path d="M39.1389 49.9149C39.6758 49.9149 40.1111 49.4778 40.1111 48.9387C40.1111 48.3995 39.6758 47.9624 39.1389 47.9624C38.602 47.9624 38.1667 48.3995 38.1667 48.9387C38.1667 49.4778 38.602 49.9149 39.1389 49.9149Z" fill="white"/>
<path d="M42.8333 35.6621C43.3703 35.6621 43.8056 35.225 43.8056 34.6859C43.8056 34.1467 43.3703 33.7096 42.8333 33.7096C42.2964 33.7096 41.8611 34.1467 41.8611 34.6859C41.8611 35.225 42.2964 35.6621 42.8333 35.6621Z" fill="white"/>
<path d="M42.8333 40.3479C43.3703 40.3479 43.8056 39.9109 43.8056 39.3717C43.8056 38.8326 43.3703 38.3955 42.8333 38.3955C42.2964 38.3955 41.8611 38.8326 41.8611 39.3717C41.8611 39.9109 42.2964 40.3479 42.8333 40.3479Z" fill="white"/>
<path d="M31.75 30.9762C32.2869 30.9762 32.7222 30.5392 32.7222 30C32.7222 29.4609 32.2869 29.0238 31.75 29.0238C31.213 29.0238 30.7778 29.4609 30.7778 30C30.7778 30.5392 31.213 30.9762 31.75 30.9762Z" fill="white"/>
<path d="M35.4444 30.9762C35.9814 30.9762 36.4167 30.5392 36.4167 30C36.4167 29.4609 35.9814 29.0238 35.4444 29.0238C34.9075 29.0238 34.4722 29.4609 34.4722 30C34.4722 30.5392 34.9075 30.9762 35.4444 30.9762Z" fill="white"/>
<path d="M39.1389 30.9762C39.6758 30.9762 40.1111 30.5392 40.1111 30C40.1111 29.4609 39.6758 29.0238 39.1389 29.0238C38.602 29.0238 38.1667 29.4609 38.1667 30C38.1667 30.5392 38.602 30.9762 39.1389 30.9762Z" fill="white"/>
<path d="M42.8333 45.229C43.3703 45.229 43.8056 44.792 43.8056 44.2528C43.8056 43.7136 43.3703 43.2766 42.8333 43.2766C42.2964 43.2766 41.8611 43.7136 41.8611 44.2528C41.8611 44.792 42.2964 45.229 42.8333 45.229Z" fill="white"/>
<path d="M28.25 40.3479C28.787 40.3479 29.2222 39.9109 29.2222 39.3717C29.2222 38.8326 28.787 38.3955 28.25 38.3955C27.7131 38.3955 27.2778 38.8326 27.2778 39.3717C27.2778 39.9109 27.7131 40.3479 28.25 40.3479Z" fill="white"/>
<path d="M28.25 45.229C28.787 45.229 29.2222 44.792 29.2222 44.2528C29.2222 43.7136 28.787 43.2766 28.25 43.2766C27.7131 43.2766 27.2778 43.7136 27.2778 44.2528C27.2778 44.792 27.7131 45.229 28.25 45.229Z" fill="white"/>
<path d="M28.25 49.9149C28.787 49.9149 29.2222 49.4778 29.2222 48.9387C29.2222 48.3995 28.787 47.9624 28.25 47.9624C27.7131 47.9624 27.2778 48.3995 27.2778 48.9387C27.2778 49.4778 27.7131 49.9149 28.25 49.9149Z" fill="white"/>
</g>
<defs>
<clipPath id="clip0_147_232">
<rect width="28" height="40" fill="white" transform="translate(16 10)"/>
</clipPath>
</defs>
</svg>
