<svg width="60" height="60" viewBox="0 0 60 60" fill="none" xmlns="http://www.w3.org/2000/svg">
<rect width="60" height="60" fill="black"/>
<g clip-path="url(#clip0_1746_9050)">
<path d="M20.9214 39.8277C21.8535 38.9513 22.0139 37.868 22.0139 36.8948V32.8104H16.9469V38.3518C16.9469 39.1471 16.3766 39.7892 15.6729 39.7892C14.9698 39.7892 14.4454 39.1471 14.4454 38.3518V22.6498C14.4454 21.8573 14.9693 21.2142 15.6729 21.2142C16.3766 21.2142 16.9469 21.8573 16.9469 22.6498V28.2293H22.0067V22.4412C22.0067 19.2438 20.1503 16.6124 15.6303 16.6062C10.9881 16.6062 9.23346 19.2499 9.23346 22.4474V38.844C9.23346 42.0123 11.4688 44.41 14.3271 44.41H15.8964L20.9214 39.8277Z" fill="white"/>
<path d="M40.8958 40.4715V22.4518H37.3987V17.1448H50.0536V22.4518H46.5398V44.3781H45.0396L40.8958 40.4715Z" fill="white"/>
<path d="M43.1633 44.4178L30.8392 32.7908L18.0687 44.4178H43.1633Z" fill="#FEC40E"/>
<path d="M29.4762 29.6576L30.8403 21.8069L32.1972 29.6576H29.4762ZM34.3546 17.1721H27.2956L23.1827 37.9485L30.8419 30.9876L38.8264 38.5217L34.3546 17.1721Z" fill="white"/>
</g>
<defs>
<clipPath id="clip0_1746_9050">
<rect width="42" height="29" fill="white" transform="translate(9 16)"/>
</clipPath>
</defs>
</svg>
