<svg width="60" height="60" viewBox="0 0 60 60" fill="none" xmlns="http://www.w3.org/2000/svg">
<rect width="60" height="60" fill="#00A1E0"/>
<g clip-path="url(#clip0_150_782)">
<mask id="mask0_150_782" style="mask-type:luminance" maskUnits="userSpaceOnUse" x="9" y="16" width="42" height="29">
<path d="M9.00928 16.0759H50.8554V44.9241H9.00928V16.0759Z" fill="white"/>
</mask>
<g mask="url(#mask0_150_782)">
<path fill-rule="evenodd" clip-rule="evenodd" d="M26.3847 19.2341C27.7354 17.8463 29.6154 16.9869 31.6924 16.9869C34.4616 16.9869 36.8616 18.5053 38.1539 20.7676C39.301 20.2615 40.5435 20.0002 41.8001 20.0008C46.7847 20.0008 50.8308 24.0244 50.8308 28.9893C50.8308 33.9542 46.7847 37.9778 41.8001 37.9778C41.1908 37.9778 40.597 37.9173 40.0154 37.8032C38.8847 39.7922 36.7231 41.1435 34.2616 41.1435C33.2594 41.1454 32.2701 40.9211 31.3693 40.4876C30.2231 43.1446 27.5539 45.0122 24.4462 45.0122C21.2001 45.0122 18.4462 42.9928 17.3847 40.1535C16.9122 40.2519 16.4306 40.3014 15.9478 40.3011C12.0862 40.3011 8.96313 37.1734 8.96313 33.332C8.96313 30.7508 10.3693 28.5037 12.4554 27.2891C12.0129 26.2829 11.7851 25.1975 11.7862 24.1006C11.7862 19.6671 15.4324 16.0838 19.9247 16.0838C22.5554 16.0838 24.9093 17.3213 26.3862 19.2419" fill="white"/>
</g>
</g>
<defs>
<clipPath id="clip0_150_782">
<rect width="42" height="29" fill="white" transform="translate(9 16)"/>
</clipPath>
</defs>
</svg>
