<svg width="60" height="60" viewBox="0 0 60 60" fill="none" xmlns="http://www.w3.org/2000/svg">
<rect width="60" height="60" fill="white"/>
<g clip-path="url(#clip0_147_220)">
<path d="M9.06393 26.3383V12.7057L30.0344 19.5224L9.06393 26.3383Z" fill="url(#paint0_linear_147_220)"/>
<path d="M9.06921 26.3394L30.0344 33.1554L50.9985 26.3394V12.7073L30.0344 19.5224L9.06921 26.3394Z" fill="url(#paint1_linear_147_220)"/>
<path d="M9.06507 42.1848L9.06326 28.5477L30.0323 35.364L9.06507 42.1848Z" fill="url(#paint2_linear_147_220)"/>
<path d="M50.9993 28.5477L30.0283 35.3619L9.06738 42.1823L30.0323 49L50.9993 42.1801V28.5477Z" fill="url(#paint3_linear_147_220)"/>
</g>
<defs>
<linearGradient id="paint0_linear_147_220" x1="30.0344" y1="19.522" x2="17.575" y2="0.356341" gradientUnits="userSpaceOnUse">
<stop stop-color="#06549B"/>
<stop offset="0.55" stop-color="#2FA1D3"/>
<stop offset="0.9" stop-color="#2FA1D3"/>
</linearGradient>
<linearGradient id="paint1_linear_147_220" x1="9.06921" y1="24.9761" x2="22.7302" y2="-12.8404" gradientUnits="userSpaceOnUse">
<stop stop-color="#1371B1"/>
<stop offset="0.05" stop-color="#2FA1D3"/>
<stop offset="0.45" stop-color="#2FA1D3"/>
<stop offset="0.6" stop-color="#06569C"/>
</linearGradient>
<linearGradient id="paint2_linear_147_220" x1="30.0323" y1="35.3662" x2="14.627" y2="21.1534" gradientUnits="userSpaceOnUse">
<stop stop-color="#9D1A36"/>
<stop offset="0.4" stop-color="#9D1A36"/>
<stop offset="0.6" stop-color="#E6192F"/>
</linearGradient>
<linearGradient id="paint3_linear_147_220" x1="9.06738" y1="40.8191" x2="22.7327" y2="2.99588" gradientUnits="userSpaceOnUse">
<stop stop-color="#A21C38"/>
<stop offset="0.13" stop-color="#E6192F"/>
<stop offset="0.45" stop-color="#E6192F"/>
<stop offset="0.6" stop-color="#A71C37"/>
</linearGradient>
<clipPath id="clip0_147_220">
<rect width="42" height="37" fill="white" transform="translate(9 12)"/>
</clipPath>
</defs>
</svg>
