<svg width="60" height="60" viewBox="0 0 60 60" fill="none" xmlns="http://www.w3.org/2000/svg">
<rect width="60" height="60" fill="#355DBD"/>
<g clip-path="url(#clip0_150_835)">
<path d="M27.1444 25.2218C27.16 24.9948 27.1275 24.767 27.049 24.5528C26.9705 24.3385 26.8477 24.1423 26.6882 23.9764C26.5286 23.8106 26.3358 23.6785 26.1217 23.5885C25.9076 23.4985 25.6768 23.4525 25.4438 23.4534C25.2107 23.4542 24.9803 23.5019 24.7669 23.5935C24.5535 23.685 24.3617 23.8185 24.2034 23.9856C24.0452 24.1526 23.9238 24.3497 23.847 24.5645C23.7701 24.7793 23.7394 25.0073 23.7567 25.2342C23.7567 25.6739 23.9357 26.0955 24.2541 26.4064C24.5726 26.7172 25.0045 26.8919 25.4548 26.8919C25.9052 26.8919 26.3371 26.7172 26.6556 26.4064C26.974 26.0955 27.1529 25.6739 27.1529 25.2342L27.1444 25.2218ZM9.323 28.1351C9.323 28.0252 9.36772 27.9198 9.44734 27.8421C9.52695 27.7644 9.63493 27.7207 9.74752 27.7207H11.4456C11.5582 27.7207 11.6662 27.7644 11.7458 27.8421C11.8254 27.9198 11.8701 28.0252 11.8701 28.1351V36.4234C11.8701 36.5333 11.8254 36.6387 11.7458 36.7164C11.6662 36.7942 11.5582 36.8378 11.4456 36.8378H9.74752C9.63493 36.8378 9.52695 36.7942 9.44734 36.7164C9.36772 36.6387 9.323 36.5333 9.323 36.4234V28.1351ZM20.7851 36.8378H19.0734C18.7652 36.8378 18.6625 36.6729 18.6625 36.3612V31.3046C18.6633 30.339 18.6642 29.661 17.6445 29.661C17.1588 29.661 16.5925 29.8641 16.1154 30.1641V36.4234C16.1154 36.5333 16.0706 36.6387 15.991 36.7164C15.9114 36.7942 15.8034 36.8378 15.6908 36.8378H13.9927C13.8802 36.8378 13.7722 36.7942 13.6926 36.7164C13.6129 36.6387 13.5682 36.5333 13.5682 36.4234V28.1351C13.5682 28.0252 13.6129 27.9198 13.6926 27.8421C13.7722 27.7644 13.8802 27.7207 13.9927 27.7207H15.6908C15.8034 27.7207 15.9114 27.7644 15.991 27.8421C16.0706 27.9198 16.1154 28.0252 16.1154 28.1351V28.3498C16.7681 27.9456 17.5236 27.7277 18.2965 27.7207C20.2154 27.7207 21.2096 29.0385 21.2096 31.0344V36.3985C21.2096 36.7102 21.0941 36.8378 20.7851 36.8378ZM32.9604 36.8378C33.7593 36.8378 34.8402 36.6008 35.6434 36.1549V36.4234C35.6434 36.5333 35.6881 36.6387 35.7677 36.7164C35.8473 36.7942 35.9553 36.8378 36.0679 36.8378H37.766C37.8786 36.8378 37.9865 36.7942 38.0662 36.7164C38.1458 36.6387 38.1905 36.5333 38.1905 36.4234V28.1351C38.1905 28.0252 38.1458 27.9198 38.0662 27.8421C37.9865 27.7644 37.8786 27.7207 37.766 27.7207H36.0679C35.9553 27.7207 35.8473 27.7644 35.7677 27.8421C35.6881 27.9198 35.6434 28.0252 35.6434 28.1351V34.2983C35.0236 34.6406 34.1066 34.8785 33.5946 34.8785C32.5664 34.8785 32.2514 34.1823 32.2514 33.1744V28.1434C32.2514 27.8119 32.0969 27.7215 31.8227 27.7215H30.1246C29.8512 27.7215 29.6797 27.8318 29.6797 28.1434V33.5598C29.6797 35.539 31.0407 36.8386 32.9595 36.8386L32.9604 36.8378ZM22.0587 28.1351C22.0587 28.0252 22.1034 27.9198 22.183 27.8421C22.2626 27.7644 22.3706 27.7207 22.4832 27.7207H28.4265C28.5391 27.7207 28.6471 27.7644 28.7267 27.8421C28.8063 27.9198 28.851 28.0252 28.851 28.1351V29.7928C28.851 29.9027 28.8063 30.0081 28.7267 30.0858C28.6471 30.1635 28.5391 30.2072 28.4265 30.2072H26.7284V36.4234C26.7284 36.5333 26.6837 36.6387 26.6041 36.7164C26.5245 36.7942 26.4165 36.8378 26.3039 36.8378H24.6058C24.4932 36.8378 24.3852 36.7942 24.3056 36.7164C24.226 36.6387 24.1813 36.5333 24.1813 36.4234V30.2072H22.4832C22.3706 30.2072 22.2626 30.1635 22.183 30.0858C22.1034 30.0081 22.0587 29.9027 22.0587 29.7928V28.1351ZM40.3131 27.7207C40.2005 27.7207 40.0925 27.7644 40.0129 27.8421C39.9333 27.9198 39.8886 28.0252 39.8886 28.1351V36.4234C39.8886 36.5333 39.9333 36.6387 40.0129 36.7164C40.0925 36.7942 40.2005 36.8378 40.3131 36.8378H42.0112C42.1238 36.8378 42.2318 36.7942 42.3114 36.7164C42.391 36.6387 42.4357 36.5333 42.4357 36.4234V28.1351C42.4357 28.0252 42.391 27.9198 42.3114 27.8421C42.2318 27.7644 42.1238 27.7207 42.0112 27.7207H40.3131ZM43.2848 28.1351C43.2848 28.0252 43.3295 27.9198 43.4091 27.8421C43.4887 27.7644 43.5967 27.7207 43.7093 27.7207H49.6526C49.7652 27.7207 49.8732 27.7644 49.9528 27.8421C50.0324 27.9198 50.0771 28.0252 50.0771 28.1351V29.7928C50.0771 29.9027 50.0324 30.0081 49.9528 30.0858C49.8732 30.1635 49.7652 30.2072 49.6526 30.2072H47.9545V36.4234C47.9545 36.5333 47.9098 36.6387 47.8302 36.7164C47.7506 36.7942 47.6426 36.8378 47.53 36.8378H45.8319C45.7193 36.8378 45.6113 36.7942 45.5317 36.7164C45.4521 36.6387 45.4074 36.5333 45.4074 36.4234V30.2072H43.7093C43.5967 30.2072 43.4887 30.1635 43.4091 30.0858C43.3295 30.0081 43.2848 29.9027 43.2848 29.7928V28.1351ZM46.6809 23.5766C47.1313 23.5766 47.5632 23.7512 47.8817 24.0621C48.2001 24.3729 48.379 24.7946 48.379 25.2342C48.379 25.6739 48.2001 26.0955 47.8817 26.4064C47.5632 26.7172 47.1313 26.8919 46.6809 26.8919C46.2306 26.8919 45.7987 26.7172 45.4802 26.4064C45.1618 26.0955 44.9829 25.6739 44.9829 25.2342C44.9829 24.7946 45.1618 24.3729 45.4802 24.0621C45.7987 23.7512 46.2306 23.5766 46.6809 23.5766Z" fill="#FEFEFD"/>
</g>
<defs>
<clipPath id="clip0_150_835">
<rect width="42" height="14" fill="white" transform="translate(9 23)"/>
</clipPath>
</defs>
</svg>
