<svg width="60" height="60" viewBox="0 0 60 60" fill="none" xmlns="http://www.w3.org/2000/svg">
<rect width="60" height="60" fill="#E30004"/>
<g clip-path="url(#clip0_1749_9052)">
<path d="M50.5835 21.3763H47.6206V33.7631C47.6206 35.77 46.8409 36.9617 45.032 36.9617C43.2543 36.9617 42.4435 35.676 42.4435 33.5122V31.223L39.4806 31.9756V33.0105C39.4806 36.1463 41.04 38.561 45.0009 38.561C48.9929 38.561 50.5211 36.1777 50.5211 33.0105V21.3763H50.5835ZM29.3134 36.8049C27.0367 36.8049 25.6021 34.9233 25.6021 32.9477C25.6021 31.6934 26.1635 30.5645 27.0679 29.9059L32.4634 35.8328C31.4654 36.4286 30.3426 36.8049 29.3134 36.8049ZM34.553 33.8571L29.8748 28.6829C30.7169 28.338 31.5278 28.2125 32.1827 28.2125C34.1164 28.2125 35.3015 29.3415 35.3015 31.2857C35.3327 32.1638 35.0832 33.0418 34.553 33.8571ZM29.2511 27.993L28.2219 26.8328C27.3174 25.8293 27.0679 25.2021 27.0679 24.4495C27.0679 23.0697 27.9412 22.2544 29.3446 22.2544C30.7481 22.2544 31.5902 23.0697 31.5902 24.5436C31.559 25.9547 30.904 27.2404 29.2511 27.993ZM29.3758 21C26.0699 21 24.4482 22.8502 24.4482 25.1394C24.4482 26.3937 24.9784 27.6481 26.3506 29.1533L26.3818 29.216C24.0427 30.3449 22.9823 32.1638 22.9823 34.0453C22.9823 36.5227 24.8536 38.5923 27.7853 38.5923C29.4694 38.5923 31.403 37.9024 33.1807 36.6481L34.6154 38.216H38.3579V38.0906L35.3015 34.7038C36.5802 33.1672 37.3287 31.5052 37.3287 30.0314C37.3287 28.2125 36.1124 26.9895 34.2099 26.9895C33.2119 26.9895 32.0891 27.2718 31.3406 27.554L31.2783 27.4599C33.0872 26.4878 33.8668 25.5784 33.8668 24.2927C33.8668 22.4425 32.2451 21 29.3758 21Z" fill="white"/>
<path d="M17.14 21.0314H20.0404V32.6655C20.0404 35.8328 18.5123 38.216 14.5202 38.216C10.5594 38.216 9 35.8014 9 32.6655V31.6307L11.9628 30.8781V33.1673C11.9628 35.331 12.7737 36.6167 14.5514 36.6167C16.3603 36.6167 17.14 35.4251 17.14 33.4181V21.0314Z" fill="white"/>
</g>
<defs>
<clipPath id="clip0_1749_9052">
<rect width="42" height="18" fill="white" transform="translate(9 21)"/>
</clipPath>
</defs>
</svg>
