<svg width="60" height="60" viewBox="0 0 60 60" fill="none" xmlns="http://www.w3.org/2000/svg">
<rect width="60" height="60" fill="#D52B1E"/>
<mask id="mask0_1746_9116" style="mask-type:luminance" maskUnits="userSpaceOnUse" x="9" y="18" width="42" height="23">
<path d="M9.13562 18.1364H50.8633V40.8636H9.13562V18.1364Z" fill="white"/>
</mask>
<g mask="url(#mask0_1746_9116)">
<path d="M37.9356 31.4035C38.1771 31.2311 38.4389 31.0306 38.6827 30.8387C40.561 29.3371 41.9956 27.6913 42.2801 26.7811C42.2888 26.7513 42.3138 26.6667 42.3138 26.6002C42.3138 26.5062 42.2692 26.4404 42.1837 26.4404C41.3214 26.4404 38.5549 29.1929 37.8854 31.4215V31.4293L37.9356 31.4035ZM31.001 31.087C33.6162 29.113 36.3638 26.239 36.657 25.0594C36.6656 25.021 36.6743 24.9834 36.6735 24.9473C36.6696 24.869 36.6272 24.8001 36.5285 24.8001C35.7006 24.8001 31.868 28.3321 31.001 31.087ZM14.9438 32.8221C14.2531 32.3435 13.1854 31.9252 12.2314 31.9252C11.3063 31.9252 10.7137 32.2886 10.7137 32.7469C10.7137 33.2725 11.4318 33.5028 12.2361 33.5028C13.2113 33.5028 14.0963 33.2396 14.9438 32.8221ZM22.9547 26.6299C24.8299 26.0291 26.6078 24.7734 27.935 23.4622C29.1603 22.2488 30.1418 20.8083 30.1418 20.0947C30.1418 19.9317 30.0258 19.8338 29.8768 19.8338C29.31 19.8338 28.2329 20.5866 26.7834 22.0365C25.6554 23.1669 24.3407 24.71 22.9547 26.6299ZM50.8626 31.1591C49.2524 32.7602 44.2353 37.1609 42.9073 40.8636L41.2626 40.4399C41.8004 38.9061 43.4192 36.5209 45.223 34.6809C44.8389 34.825 44.4391 34.8791 44.1177 34.8791C43.6301 34.8791 43.2514 34.7318 43.0233 34.4561C42.8602 34.2571 42.7771 33.9978 42.7771 33.6892C42.7771 33.6218 42.7818 33.5545 42.7913 33.4785C41.2069 34.4428 39.9331 34.8783 38.685 34.8783C37.7138 34.8783 36.8961 34.4553 36.5175 33.7135C34.9449 34.4929 33.4366 34.8783 32.1761 34.8783C31.0025 34.8783 30.0563 34.4138 29.622 33.5678C28.0322 34.4608 26.6792 34.8783 25.6028 34.8783C24.9835 34.8783 24.492 34.7067 24.1769 34.3817C23.9448 34.142 23.8225 33.82 23.8045 33.4479C22.7854 34.1192 21.2959 34.8783 19.7696 34.8783C18.208 34.8783 17.1607 34.3425 16.3478 33.8114C15.0512 34.5289 13.6244 34.8783 12.1161 34.8783C10.9763 34.8783 9.13721 34.4044 9.13721 32.7712C9.13486 31.4528 10.5114 30.5598 12.3537 30.5598C13.92 30.5598 15.429 31.2194 16.376 31.904C17.2744 31.1888 18.2175 30.1885 19.3298 28.7746C19.0853 28.7887 18.8462 28.795 18.611 28.795C16.4811 28.795 14.7023 28.1676 13.731 27.0694C13.2066 26.4756 12.9581 25.7792 12.9581 25.0296C12.9581 22.0686 16.7013 19.7712 19.9758 19.4328C20.1922 19.9231 20.385 20.3007 20.5849 20.7495C17.3504 21.1255 14.6561 23.0384 14.6561 24.9082C14.6561 26.1372 16.0381 27.3717 18.9724 27.3717C19.4749 27.3717 19.9797 27.3232 20.4767 27.255C23.0668 23.6831 27.0351 18.1364 30.4507 18.1364C31.4611 18.1364 31.9895 18.7505 31.9895 19.5714C31.9895 21.2603 30.5353 23.0783 29.5883 24.0269C28.1004 25.5207 25.4084 27.7438 21.6495 28.4801C20.1875 30.5128 18.9857 31.8609 17.7832 32.8346C18.5114 33.227 19.195 33.4683 20.0095 33.4683C22.0328 33.4683 23.9958 31.6181 25.5284 30.0491L25.5825 29.9966L26.7772 30.9303L26.7223 30.9961C26.045 31.7724 25.4202 32.5933 25.4202 33.0531C25.4202 33.4017 25.7157 33.4707 25.9689 33.4707C26.7435 33.4707 27.9382 32.9693 29.3437 32.1061V32.0944C29.499 28.6243 34.2386 23.3173 37.1156 23.3173C37.9278 23.3173 38.3942 23.7214 38.3942 24.4296C38.3942 26.1693 35.391 29.8987 31.0221 32.7531V32.7555C31.2479 33.2411 31.7684 33.4754 32.6519 33.4754C33.341 33.4754 34.6894 33.1683 36.2917 32.3317C36.4767 30.534 37.4966 28.6031 38.7901 27.2268C40.0875 25.8489 41.5417 24.9536 42.7991 24.9536C43.5744 24.9536 44.0322 25.3797 44.0322 26.0495C44.0322 27.5668 42.2692 30.1611 38.0218 32.8777C38.21 33.2411 38.5745 33.4707 39.1421 33.4707C40.4073 33.4707 42.636 32.1218 44.3717 30.4635L45.6181 31.4301C45.0858 32.0756 44.5473 32.7845 44.5645 33.1926C44.5692 33.325 44.6586 33.4143 44.8679 33.4143C46.1473 33.4143 48.1612 31.7262 49.671 30.2363L50.8626 31.1591ZM27.7046 27.6788C28.2698 27.6788 28.726 28.137 28.726 28.701C28.726 29.2658 28.2698 29.7233 27.7046 29.7233C27.137 29.7233 26.6792 29.2658 26.6792 28.701C26.68 28.137 27.1378 27.6788 27.7046 27.6788Z" fill="white"/>
</g>
</svg>
