<svg width="60" height="60" viewBox="0 0 60 60" fill="none" xmlns="http://www.w3.org/2000/svg">
<rect width="60" height="60" fill="white"/>
<g clip-path="url(#clip0_1754_9141)">
<path d="M13.5033 34.8059C13.5033 36.358 13.8527 37.5497 14.3094 38.2706C14.9082 39.2149 15.8013 39.615 16.7118 39.615C17.8862 39.615 18.9605 39.3308 21.0309 36.539C22.6896 34.3012 24.644 31.1602 25.959 29.191L28.186 25.8549C29.733 23.538 31.5236 20.9624 33.5766 19.2165C35.2526 17.7916 37.0606 17 38.8801 17C41.935 17 44.8449 18.726 47.0718 21.9632C49.5091 25.5085 50.6921 29.9741 50.6921 34.5825C50.6921 37.3221 50.1383 39.3351 49.1959 40.9254C48.2854 42.4634 46.5108 44 43.5255 44V39.615C46.0816 39.615 46.7195 37.3249 46.7195 34.7041C46.7195 30.9693 45.8264 26.8246 43.859 23.8631C42.4627 21.7625 40.6533 20.4789 38.6627 20.4789C36.5096 20.4789 34.777 22.0621 32.8299 24.8851C31.7947 26.385 30.7319 28.2128 29.5387 30.2752L28.2251 32.5441C25.5864 37.1058 24.918 38.1448 23.5986 39.8595C21.2861 42.862 19.3114 44 16.7118 44C13.6279 44 11.6779 42.6981 10.4702 40.736C9.48425 39.1372 9 37.0394 9 34.649L13.5033 34.8059Z" fill="#0081FB"/>
<path d="M12.5507 22.2728C14.6153 19.1699 17.5948 17 21.0121 17C22.9911 17 24.9586 17.5711 27.013 19.2066C29.2603 20.9949 31.6555 23.9394 34.6437 28.7924L35.7151 30.5339C38.3016 34.7352 39.7733 36.8966 40.6345 37.9158C41.7422 39.2248 42.5178 39.615 43.5255 39.615C46.0816 39.615 46.7195 37.3249 46.7195 34.7041L50.6921 34.5825C50.6921 37.3221 50.1383 39.3351 49.1959 40.9254C48.2854 42.4634 46.5108 44 43.5255 44C41.6697 44 40.0255 43.607 38.2074 41.9347C36.8097 40.6512 35.1758 38.371 33.9187 36.3213L30.1795 30.2314C28.3034 27.1752 26.5824 24.8964 25.5864 23.8645C24.5149 22.7548 23.1376 21.4147 20.9396 21.4147C19.1606 21.4147 17.6499 22.6318 16.3856 24.4936L12.5507 22.2728Z" fill="url(#paint0_linear_1754_9141)"/>
<path d="M20.9396 21.4147C19.1606 21.4147 17.6499 22.6318 16.3856 24.4936C14.5979 27.1243 13.5033 31.0428 13.5033 34.8059C13.5033 36.358 13.8527 37.5497 14.3094 38.2706L10.4702 40.736C9.48425 39.1372 9 37.0394 9 34.649C9 30.3021 10.2237 25.7715 12.5507 22.2728C14.6153 19.1699 17.5948 17 21.0121 17L20.9396 21.4147Z" fill="url(#paint1_linear_1754_9141)"/>
</g>
<defs>
<linearGradient id="paint0_linear_1754_9141" x1="17.8441" y1="33.5393" x2="46.5476" y2="35.0261" gradientUnits="userSpaceOnUse">
<stop stop-color="#0064E1"/>
<stop offset="0.4" stop-color="#0064E1"/>
<stop offset="0.83" stop-color="#0073EE"/>
<stop offset="1" stop-color="#0082FB"/>
</linearGradient>
<linearGradient id="paint1_linear_1754_9141" x1="15.5244" y1="36.6492" x2="15.5244" y2="26.3298" gradientUnits="userSpaceOnUse">
<stop stop-color="#0082FB"/>
<stop offset="1" stop-color="#0064E0"/>
</linearGradient>
<clipPath id="clip0_1754_9141">
<rect width="42" height="27" fill="white" transform="translate(9 17)"/>
</clipPath>
</defs>
</svg>
