<svg width="60" height="60" viewBox="0 0 60 60" fill="none" xmlns="http://www.w3.org/2000/svg">
<rect width="60" height="60" fill="#007A73"/>
<g clip-path="url(#clip0_1772_9523)">
<path d="M20.278 20.3229C20.278 14.9777 24.5928 10.6453 29.9142 10.6453C35.2373 10.6453 39.5504 14.9777 39.5504 20.3229H20.278ZM20.278 39.6773C20.278 34.333 24.5928 29.9997 29.9142 29.9997C24.5928 29.9997 20.278 25.668 20.278 20.3229C14.9565 20.3229 10.6426 24.6554 10.6426 29.9997C10.6426 35.3457 14.9565 39.6773 20.278 39.6773ZM20.278 39.6773C20.278 45.0233 24.5928 49.355 29.9142 49.355C35.2373 49.355 39.5504 45.0233 39.5504 39.6773H20.278ZM29.9142 29.9997C35.2373 29.9997 39.5504 34.333 39.5504 39.6773C44.8727 39.6773 49.1875 35.3457 49.1875 29.9997C49.1875 24.6554 44.8727 20.3229 39.5504 20.3229C39.5504 25.668 35.2373 29.9997 29.9142 29.9997Z" fill="white"/>
</g>
<defs>
<clipPath id="clip0_1772_9523">
<rect width="40" height="40" fill="white" transform="translate(10 10)"/>
</clipPath>
</defs>
</svg>
