<svg width="60" height="60" viewBox="0 0 60 60" fill="none" xmlns="http://www.w3.org/2000/svg">
<rect width="60" height="60" fill="#0096D6"/>
<g clip-path="url(#clip0_168_691)">
<path d="M34.6059 15.8093C34.6059 15.8093 35.2338 17.5417 35.3133 19.9063L24.8674 32.1124L39.3189 21.1657L40.0236 24.5533C40.0236 24.5533 29.0319 37.0755 26.3589 40.6199C26.3589 40.6199 40.3748 28.987 48.2092 24.2885C44.752 17.8886 37.9991 13.5398 30.2313 13.5398C18.9448 13.5398 9.79822 22.7156 9.79822 34.0323C9.79822 34.3459 9.82897 34.6518 9.84435 34.9628C14.383 31.0174 26.6101 20.608 34.6059 15.8093Z" fill="white"/>
<path d="M50.6631 34.5264C50.6631 32.4856 50.3555 30.5194 49.802 28.6586C45.0864 31.1723 33.882 37.3948 25.8374 43.8975C32.4417 44.81 39.1767 46.0051 46.0347 47.5139C48.9281 43.9798 50.6631 39.4587 50.6631 34.5264Z" fill="white"/>
<path d="M34.9994 27.4879C34.9994 27.4879 23.454 36.4684 21.8831 37.9642L20.3121 35.0496C20.3121 35.0496 28.2464 25.1259 30.8374 22.5274C30.8374 22.5274 16.7114 32.6104 10.225 38.7019C10.4813 39.9536 10.8605 41.1565 11.3321 42.3105C14.8124 42.5881 18.3336 42.9479 21.8959 43.3849C22.1445 43.0816 33.6001 29.2794 34.9994 27.4879Z" fill="white"/>
</g>
<defs>
<clipPath id="clip0_168_691">
<rect width="42" height="35" fill="white" transform="translate(9 13)"/>
</clipPath>
</defs>
</svg>
