<svg width="60" height="60" viewBox="0 0 60 60" fill="none" xmlns="http://www.w3.org/2000/svg">
<g clip-path="url(#clip0_147_207)">
<rect width="60" height="60" fill="black"/>
<g clip-path="url(#clip1_147_207)">
<path d="M54.4822 7.62939e-06H5.51776C2.47038 7.62939e-06 0 2.47039 0 5.51776V54.4823C0 57.5296 2.47038 60 5.51776 60H54.4822C57.5296 60 60 57.5296 60 54.4823V5.51776C60 2.47039 57.5296 7.62939e-06 54.4822 7.62939e-06Z" fill="black"/>
<path fill-rule="evenodd" clip-rule="evenodd" d="M33.2178 9.67739L33.202 18.6717L33.1861 27.666L32.4461 25.578C32.4459 25.5773 32.445 25.5747 32.4447 25.5739L31.4885 45.5977C32.4286 48.2527 32.9323 49.67 32.938 49.6756C32.9454 49.683 33.4812 49.7154 34.1286 49.7475C36.0902 49.8448 38.5211 50.0534 40.3651 50.2825C40.792 50.3356 41.1595 50.3627 41.1816 50.3429C41.2037 50.3231 41.2158 41.1653 41.2084 29.9921L41.1949 9.67739H33.2178ZM18.7894 9.65062V29.9859C18.7894 41.1704 18.8004 50.3323 18.8138 50.3457C18.8272 50.3591 19.5198 50.2937 20.353 50.2004C21.1862 50.1071 22.3376 49.991 22.9118 49.9426C23.7925 49.8682 26.4218 49.6992 26.7262 49.6973C26.8148 49.6967 26.8205 49.2398 26.8333 41.0841L26.8468 32.4715L27.483 34.2715C27.5813 34.5497 27.6122 34.6365 27.708 34.9076L28.6639 14.8888C28.4614 14.3161 28.5676 14.6167 28.3354 13.9604C27.5544 11.752 26.8915 9.87882 26.8625 9.79785L26.8096 9.65062H18.7894Z" fill="#B1060F" stroke="black" stroke-width="0.310123"/>
<path fill-rule="evenodd" clip-rule="evenodd" d="M18.7894 9.65062V21.0654L26.8306 42.3958C26.8314 41.907 26.8324 41.6429 26.8333 41.0841L26.8468 32.4715L27.483 34.2715C31.0242 44.2918 32.9268 49.6644 32.938 49.6756C32.9454 49.683 33.4812 49.7154 34.1286 49.7475C36.0902 49.8448 38.521 50.0534 40.3651 50.2825C40.792 50.3356 41.1595 50.3627 41.1816 50.3429C41.1968 50.3293 41.2067 45.839 41.2094 39.5044L33.2058 16.4942L33.202 18.6717L33.1861 27.666L32.4461 25.578C31.7231 23.5379 31.2403 22.1735 28.3354 13.9604C27.5543 11.752 26.8915 9.87882 26.8625 9.79785L26.8096 9.65062H18.7894Z" fill="url(#paint0_radial_147_207)"/>
<path fill-rule="evenodd" clip-rule="evenodd" d="M18.7898 9.6506L26.847 32.4819V32.4715L27.4832 34.2714C31.0244 44.2918 32.927 49.6644 32.9382 49.6756C32.9456 49.683 33.4813 49.7153 34.1288 49.7475C36.0904 49.8448 38.5212 50.0534 40.3652 50.2825C40.79 50.3353 41.1556 50.3624 41.1811 50.3432L33.1863 27.6618V27.666L32.4463 25.578C31.7232 23.5378 31.2405 22.1735 28.3356 13.9604C27.5545 11.7519 26.8917 9.8788 26.8627 9.79782L26.8098 9.6506L18.7898 9.6506Z" fill="#E50914"/>
<path fill-rule="evenodd" clip-rule="evenodd" d="M33.2178 9.67739L33.202 18.6717L33.1861 27.666L32.4461 25.578C32.4459 25.5773 32.445 25.5747 32.4447 25.5739L31.4885 45.5977C32.4286 48.2527 32.9323 49.67 32.938 49.6756C32.9454 49.683 33.4812 49.7154 34.1286 49.7475C36.0902 49.8448 38.5211 50.0534 40.3651 50.2825C40.792 50.3356 41.1595 50.3627 41.1816 50.3429C41.2037 50.3231 41.2158 41.1653 41.2084 29.9921L41.1949 9.67739H33.2178ZM18.7894 9.65062V29.9859C18.7894 41.1704 18.8004 50.3323 18.8138 50.3457C18.8272 50.3591 19.5198 50.2937 20.353 50.2004C21.1862 50.1071 22.3376 49.991 22.9118 49.9426C23.7925 49.8682 26.4218 49.6992 26.7262 49.6973C26.8148 49.6967 26.8205 49.2398 26.8333 41.0841L26.8468 32.4715L27.483 34.2715C27.5813 34.5497 27.6122 34.6365 27.708 34.9076L28.6639 14.8888C28.4614 14.3161 28.5676 14.6167 28.3354 13.9604C27.5544 11.752 26.8915 9.87882 26.8625 9.79785L26.8096 9.65062H18.7894Z" fill="#B1060F" stroke="black" stroke-width="0.310123"/>
<path fill-rule="evenodd" clip-rule="evenodd" d="M18.7894 9.65062V21.0654L26.8306 42.3958C26.8314 41.907 26.8324 41.6429 26.8333 41.0841L26.8468 32.4715L27.483 34.2715C31.0242 44.2918 32.9268 49.6644 32.938 49.6756C32.9454 49.683 33.4812 49.7154 34.1286 49.7475C36.0902 49.8448 38.521 50.0534 40.3651 50.2825C40.792 50.3356 41.1595 50.3627 41.1816 50.3429C41.1968 50.3293 41.2067 45.839 41.2094 39.5044L33.2058 16.4942L33.202 18.6717L33.1861 27.666L32.4461 25.578C31.7231 23.5379 31.2403 22.1735 28.3354 13.9604C27.5543 11.752 26.8915 9.87882 26.8625 9.79785L26.8096 9.65062H18.7894Z" fill="url(#paint1_radial_147_207)"/>
<path fill-rule="evenodd" clip-rule="evenodd" d="M18.7898 9.6506L26.847 32.4819V32.4715L27.4832 34.2714C31.0244 44.2918 32.927 49.6644 32.9382 49.6756C32.9456 49.683 33.4813 49.7153 34.1288 49.7475C36.0904 49.8448 38.5212 50.0534 40.3652 50.2825C40.79 50.3353 41.1556 50.3624 41.1811 50.3432L33.1863 27.6618V27.666L32.4463 25.578C31.7232 23.5378 31.2405 22.1735 28.3356 13.9604C27.5545 11.7519 26.8917 9.8788 26.8627 9.79782L26.8098 9.6506L18.7898 9.6506Z" fill="#E50914"/>
</g>
</g>
<defs>
<radialGradient id="paint0_radial_147_207" cx="0" cy="0" r="1" gradientTransform="matrix(4.80193 -1.6626 60.901 175.89 29.6271 29.7634)" gradientUnits="userSpaceOnUse">
<stop/>
<stop offset="1" stop-opacity="0"/>
</radialGradient>
<radialGradient id="paint1_radial_147_207" cx="0" cy="0" r="1" gradientTransform="matrix(4.80193 -1.6626 60.901 175.89 29.6271 29.7634)" gradientUnits="userSpaceOnUse">
<stop/>
<stop offset="1" stop-opacity="0"/>
</radialGradient>
<clipPath id="clip0_147_207">
<rect width="60" height="60" fill="white"/>
</clipPath>
<clipPath id="clip1_147_207">
<rect width="60" height="60" fill="white"/>
</clipPath>
</defs>
</svg>
