<svg width="60" height="60" viewBox="0 0 60 60" fill="none" xmlns="http://www.w3.org/2000/svg">
<rect width="60" height="60" fill="white"/>
<g clip-path="url(#clip0_2268_9944)">
<path d="M45.5875 45.7501C36.9831 54.3917 23.035 54.3917 14.4487 45.7501C5.84438 37.1085 5.84438 23.1 14.4487 14.4766C23.0531 5.83502 37.0012 5.83502 45.5875 14.4766C54.1918 23.1182 54.1918 37.1267 45.5875 45.7501Z" fill="white"/>
<path d="M42.2725 13.6943C38.8489 11.111 34.6101 9.58276 30.0272 9.58276C18.7419 9.60096 9.59407 18.7883 9.59407 30.1043C9.59407 34.6707 11.0795 38.8732 13.5792 42.2753C27.31 38.2729 38.1606 27.4481 42.2725 13.6943Z" fill="#EB1D39"/>
<path d="M47.1634 18.952C47.5801 20.2983 47.7974 21.7173 47.7974 23.191C47.7974 27.9575 45.4607 32.1418 41.9284 34.7616C35.7513 39.328 26.7666 39.328 14.3582 43.2577C18.1079 47.7513 23.7415 50.6258 30.0272 50.6258C41.3125 50.6258 50.4603 41.4384 50.4603 30.1042C50.4422 25.9927 49.2466 22.1722 47.1634 18.952Z" fill="#005891"/>
</g>
<defs>
<clipPath id="clip0_2268_9944">
<rect width="46" height="46" fill="white" transform="translate(7 7)"/>
</clipPath>
</defs>
</svg>
