<svg width="60" height="60" viewBox="0 0 60 60" fill="none" xmlns="http://www.w3.org/2000/svg">
<g clip-path="url(#clip0_150_755)">
<rect width="60" height="60" fill="#3253DC"/>
<rect width="60" height="60" fill="#3253DC"/>
<g clip-path="url(#clip1_150_755)">
<path d="M30.297 9C20.1678 9 12 16.8451 12 27.315C12 37.8141 20.1678 45.63 30.297 45.63C32.0242 45.63 33.6929 45.3967 35.2737 44.9593L37.2644 50.063C37.4694 50.6171 37.8792 50.9671 38.6111 50.9671H41.7728C42.534 50.9671 43.0902 50.4713 42.7389 49.5089L40.1627 42.8303C45.2273 39.6514 48.5939 34.0227 48.5939 27.2859C48.5939 16.8451 40.4262 9 30.297 9ZM38.2598 37.9599L35.9471 31.9813C35.7421 31.4855 35.3323 31.0189 34.454 31.0189H31.4387C30.6775 31.0189 30.092 31.5146 30.4433 32.4771L33.488 40.3222C32.4926 40.5847 31.4094 40.7013 30.297 40.7013C22.8904 40.7013 17.6208 34.8977 17.6208 27.315C17.6208 19.7324 22.8904 13.9287 30.297 13.9287C37.7036 13.9287 42.9731 19.7324 42.9731 27.315C42.9731 31.748 41.1873 35.5393 38.2598 37.9599Z" fill="white"/>
</g>
</g>
<defs>
<clipPath id="clip0_150_755">
<rect width="60" height="60" fill="white"/>
</clipPath>
<clipPath id="clip1_150_755">
<rect width="37" height="42" fill="white" transform="translate(12 9)"/>
</clipPath>
</defs>
</svg>
