<svg width="60" height="60" viewBox="0 0 60 60" fill="none" xmlns="http://www.w3.org/2000/svg">
<rect width="60" height="60" fill="#00A8E0"/>
<g clip-path="url(#clip0_150_646)">
<path d="M16.3959 46.836C20.076 49.6847 24.6952 51.3964 29.7068 51.3964C35.1912 51.3964 40.191 49.3602 44.0068 46.0178C44.053 45.9769 44.0302 45.9499 43.9846 45.9769C42.2723 47.1205 37.3922 49.6167 29.707 49.6167C23.0283 49.6167 18.8077 48.1266 16.4242 46.7962C16.3786 46.7737 16.3617 46.8079 16.3959 46.836ZM31.1803 47.9451C36.522 47.9451 42.3919 46.4889 45.9026 43.6065C46.8633 42.8212 47.7784 41.7759 48.598 40.3712C49.0698 39.5629 49.5312 38.6026 49.9071 37.6587C49.9238 37.6127 49.8954 37.5903 49.8607 37.642C46.596 42.4464 37.1422 45.443 27.3805 45.443C20.4807 45.443 13.0565 43.2366 10.1499 39.0235C10.1213 38.9846 10.0927 39.0013 10.1101 39.046C12.8178 44.8012 21.0324 47.9451 31.1803 47.9451ZM25.344 38.3976C14.2342 38.3976 8.99571 33.2233 8.04546 29.6922C8.03374 29.6411 8.00006 29.6523 8.00006 29.6982C8.00006 30.887 8.11904 32.4211 8.32374 33.4393C8.4214 33.935 8.82479 34.7128 9.4162 35.3328C12.1064 38.1369 18.8134 42.0661 30.4288 42.0661C46.2544 42.0661 49.8729 36.7945 50.6118 35.0609C51.1402 33.821 51.4139 31.5805 51.4139 29.6984C51.4139 29.2429 51.4025 28.8791 51.3853 28.522C51.3853 28.464 51.3517 28.4593 51.3401 28.5157C50.5493 32.7577 37.0281 38.3976 25.344 38.3976ZM10.0927 20.3898C9.45611 21.6531 8.75047 23.7845 8.5407 24.8876C8.44874 25.3603 8.48791 25.5873 8.65366 25.94C9.98524 28.7652 16.7206 33.2856 32.4316 33.2856C42.0165 33.2856 49.4623 30.9308 50.6686 26.6337C50.8907 25.8427 50.9026 25.0075 50.6173 23.8821C50.2984 22.6245 49.7013 21.158 49.1959 20.1283C49.1793 20.0947 49.1498 20.0996 49.1558 20.1393C49.3435 25.7754 33.6263 29.4078 25.696 29.4078C17.1062 29.4078 9.93984 25.9854 9.93984 21.6639C9.93984 21.2487 10.0258 20.8334 10.133 20.4012C10.1438 20.3617 10.11 20.3551 10.0927 20.3898ZM44.0419 13.4698C44.1331 13.6128 44.1786 13.7653 44.1786 13.9707C44.1786 16.3815 36.8001 20.6464 25.0545 20.6464C16.4242 20.6464 14.8084 17.4448 14.8084 15.4088C14.8084 14.6809 15.0875 13.9362 15.7023 13.1799C15.7359 13.1349 15.7073 13.1176 15.6686 13.1511C14.5474 14.1013 13.5173 15.1704 12.6136 16.3245C12.1818 16.8703 11.9137 17.3538 11.9137 17.6435C11.9137 21.8629 22.4937 24.9222 32.3864 24.9222C42.9271 24.9222 47.6314 21.4812 47.6314 18.4572C47.6314 17.3764 47.2107 16.7455 46.1345 15.5224C45.4359 14.7267 44.7751 14.0788 44.0757 13.441C44.0419 13.4131 44.0184 13.4358 44.0419 13.4698ZM40.8105 11.0595C37.5574 9.10959 33.7797 8.00024 29.707 8.00024C25.606 8.00024 21.7145 9.14834 18.4497 11.1499C17.4704 11.7526 16.9192 12.2356 16.9192 12.8565C16.9192 14.6866 21.1965 16.6545 28.7849 16.6545C36.2945 16.6545 42.1191 14.499 42.1191 12.4242C42.1191 11.929 41.6863 11.5825 40.8105 11.0595Z" fill="white"/>
</g>
<defs>
<clipPath id="clip0_150_646">
<rect width="44" height="44" fill="white" transform="translate(8 8)"/>
</clipPath>
</defs>
</svg>
