<svg xmlns="http://www.w3.org/2000/svg" viewBox="0 0 100 100">
  <path fill="#C00" d="M76.69 39.304v-7.25H65.047l-1.469 7.317h4.187l-1.34 6.744h-4.19l-1.45 7.3c-.113.495-.197.852-.248 1.196-.344 2.24.631 2.127 3.766 2.127l-1.433 7.179h-5.481c-5.18 0-9.395-.044-8.3-5.358.173-.81.38-1.63.527-2.416l1.958-10.02h-4.029l1.344-6.745h4.028l1.465-7.317h-3.766V21h-13.94v22.466H20c.413 5.825 5.567 6.673 7.447 10.812 1.295 2.851 2.427 7.878 6.208 7.912 2.895.035 2.895-3.747 6.624-3.747 3.723 0 5.376 7.074 8.688 12.9 2.483 4.572 6.606 7.642 10.343 7.905 3.067.212 4.551-.83 4.551-.83-.828-1.666-1.243-3.327-1.243-5.826 0-3.746 2.9-7.488 6.21-9.982 4.551-3.326 9.518-4.585 11.172-4.99V45.964s-3.31-1.771-3.31-6.66ZM57.7 56.72l4.896-24.675h-5.642l-4.89 24.675h5.635Zm6.41-32.476h-5.645l-1.08 5.442h5.642l1.082-5.442Z"/>
</svg>