<svg width="60" height="60" viewBox="0 0 60 60" fill="none" xmlns="http://www.w3.org/2000/svg">
<rect width="60" height="60" fill="white"/>
<g clip-path="url(#clip0_168_716)">
<path fill-rule="evenodd" clip-rule="evenodd" d="M27.7906 40.1338C26.635 44.4979 24.3263 44.9586 23.4016 44.9586C21.7861 44.9586 20.1689 43.809 20.1689 36.4586C20.1689 29.1091 20.1689 19.231 20.1689 19.231L28.4829 14.8666V31.6359C28.4829 34.1603 28.2519 38.2962 27.7906 40.1338Z" fill="#382D9A"/>
<path fill-rule="evenodd" clip-rule="evenodd" d="M28.4829 14.8666L30.3293 15.0957V30.4872C30.3293 34.6207 30.0995 38.0673 29.637 40.3632C28.7144 43.5789 26.8656 44.9583 25.712 45.4186L23.4019 44.9583C23.1716 44.9583 22.9406 44.9583 22.9406 44.9583C23.1713 45.8772 23.8647 46.5652 24.7882 46.7959C25.0192 47.4848 25.712 48.1737 26.6353 48.4037C27.3284 49.5512 28.2522 50.0116 29.637 50.0116C31.2546 50.2413 32.4088 49.5512 33.7936 48.6346C37.7201 45.8775 39.1055 39.6743 39.1055 31.405V9.12405L28.4829 14.8666ZM25.4805 46.7962C28.7144 46.3355 30.5606 42.6603 31.0231 41.0527C31.7159 38.5259 31.9469 35.5408 31.9469 32.0936V13.0284L33.7936 13.2575V31.1758C33.7936 35.5405 33.5629 39.4446 32.64 42.2008C31.485 44.7276 29.8686 46.5652 27.7909 47.0244L25.4805 46.7962ZM37.4885 31.1758C37.4885 37.1475 36.7957 41.2822 35.4109 44.0384C34.0248 46.7959 31.9466 48.4037 29.8683 48.862L27.3281 48.4037C30.7918 48.4037 32.8692 45.1868 33.7933 43.3492C34.9484 40.8227 35.4109 37.1475 35.4109 31.8644V10.9596L37.4885 11.422V31.1758Z" fill="url(#paint0_linear_168_716)"/>
</g>
<defs>
<linearGradient id="paint0_linear_168_716" x1="31.0228" y1="50.0562" x2="31.0228" y2="9.12419" gradientUnits="userSpaceOnUse">
<stop offset="0.0674" stop-color="#382D9A"/>
<stop offset="0.1467" stop-color="#624D81"/>
<stop offset="0.237" stop-color="#8A6C69"/>
<stop offset="0.3331" stop-color="#AD8655"/>
<stop offset="0.4346" stop-color="#C99C44"/>
<stop offset="0.5433" stop-color="#DFAC37"/>
<stop offset="0.6625" stop-color="#EEB82E"/>
<stop offset="0.8004" stop-color="#F7BF29"/>
<stop offset="1" stop-color="#FAC127"/>
</linearGradient>
<clipPath id="clip0_168_716">
<rect width="20" height="42" fill="white" transform="translate(20 9)"/>
</clipPath>
</defs>
</svg>
