<svg width="60" height="60" viewBox="0 0 60 60" fill="none" xmlns="http://www.w3.org/2000/svg">
<rect width="60" height="60" fill="#1434CB"/>
<g clip-path="url(#clip0_150_658)">
<path d="M36.35 24.02C33.3709 24.02 30.7085 25.4923 30.7085 28.2117C30.7085 31.3308 35.4302 31.5462 35.4302 33.1134C35.4302 33.7732 34.6372 34.3638 33.2823 34.3638C31.36 34.3638 29.9231 33.5386 29.9231 33.5386L29.3083 36.2833C29.3083 36.2833 30.9635 36.9804 33.1609 36.9804C36.418 36.9804 38.9813 35.4361 38.9813 32.6697C38.9813 29.3737 34.2399 29.1647 34.2399 27.7105C34.2399 27.1935 34.8909 26.6274 36.2416 26.6274C37.7658 26.6274 39.009 27.2276 39.009 27.2276L39.6109 24.577C39.6109 24.577 38.2576 24.02 36.3496 24.02H36.35ZM9.09324 24.2202L9.021 24.6202C9.021 24.6202 10.2743 24.8388 11.4032 25.2753C12.8569 25.7753 12.9602 26.0668 13.205 26.9709L15.8725 36.7738H19.4483L24.9571 24.2202H21.3896L17.8498 32.7554L16.4054 25.5203C16.2731 24.6923 15.602 24.2198 14.7809 24.2198H9.09366L9.09324 24.2202ZM26.3918 24.2202L23.5933 36.7738H26.9953L29.7837 24.2202H26.3918ZM45.3657 24.2202C44.5454 24.2202 44.1107 24.639 43.792 25.3705L38.8078 36.7738H42.3753L43.0654 34.8731H47.4115L47.8311 36.7738H50.979L48.233 24.2202H45.3657ZM45.8298 27.612L46.8874 32.3226H44.0545L45.8302 27.612H45.8298Z" fill="white"/>
</g>
<defs>
<clipPath id="clip0_150_658">
<rect width="42" height="13" fill="white" transform="translate(9 24)"/>
</clipPath>
</defs>
</svg>
