<svg width="60" height="60" viewBox="0 0 60 60" fill="none" xmlns="http://www.w3.org/2000/svg">
<rect width="60" height="60" fill="#DD1E25"/>
<g clip-path="url(#clip0_168_287)">
<path d="M9 51.0001H51V9.00008H9V51.0001Z" fill="#DD1E25"/>
<path d="M45.1966 34.8407C45.1966 33.1532 44.5004 32.1707 43.2134 32.1707C41.9258 32.1707 41.2301 33.1532 41.2301 34.8407C41.2301 36.5382 41.9164 37.5107 43.2134 37.5107C44.5098 37.5107 45.1966 36.5382 45.1966 34.8407ZM46.7604 34.8407C46.7604 36.9194 45.2826 38.3783 43.2134 38.3783C41.1536 38.3783 39.6663 36.9194 39.6663 34.8407C39.6663 32.7715 41.163 31.3031 43.2134 31.3031C45.2726 31.3031 46.7604 32.7715 46.7604 34.8407ZM36.0422 35.1458C36.0422 35.3361 36.071 35.4604 36.147 35.6129H37.282V37.3005C36.9103 37.4535 36.5381 37.5201 36.157 37.5201C34.7835 37.5201 34.0684 36.5382 34.0684 34.8407C34.0684 33.1432 34.7835 32.1613 36.0805 32.1613C36.9481 32.1613 37.4535 32.5906 37.7491 33.334L37.854 33.6009H38.5407V31.8945C37.6826 31.4845 36.9103 31.3031 36.0139 31.3031C33.9158 31.3031 32.5051 32.7049 32.5051 34.8502C32.5051 37.0053 33.8781 38.3783 36.0139 38.3783C36.8621 38.3783 37.7397 38.1398 38.6833 37.6727V34.6976H36.147C36.071 34.8502 36.0422 34.965 36.0422 35.1458ZM30.2446 33.4105C30.2446 32.7143 29.8152 32.3427 28.957 32.3427H27.832V34.4879H28.957C29.8058 34.4879 30.2446 34.0968 30.2446 33.4105ZM22.7782 35.3555L21.8435 32.8287L20.9093 35.3555H22.7782ZM32.0941 37.4341C32.1518 37.5389 32.1801 37.6632 32.1801 37.8253C32.1801 37.9872 32.1518 38.1115 32.0941 38.2163C31.8844 38.2446 31.6176 38.2635 31.3507 38.2635C30.4259 38.2635 29.9777 37.8824 29.8723 36.9954L29.8346 36.662C29.7203 35.6989 29.4052 35.3272 28.3567 35.3272H27.832V37.3582H28.7379V38.1875H22.74V37.3582H23.5221L23.0833 36.166H20.6042L20.1654 37.3582H20.9664V38.1875H18.4396V37.3582H19.1069L21.443 31.5128H22.7111L25.0954 37.3582H26.4113V32.3427H25.6008V31.5128H29.4341C30.7976 31.5128 31.6841 32.1901 31.6841 33.2769C31.6841 34.3542 30.7976 34.9267 29.9394 34.965V34.9933C30.8071 35.0599 31.1599 35.5463 31.2459 36.2997L31.2836 36.6525C31.3408 37.2056 31.4556 37.4536 31.8938 37.4536C31.9704 37.4536 32.0369 37.4436 32.0941 37.4341ZM17.562 32.3427C18.2005 32.3427 18.4202 32.619 18.6299 33.42L18.6965 33.6774H19.3832V31.5128H13.6338V32.3427H14.4443V37.3582H13.6338V38.1875H16.8181V37.3582H15.8645V35.4127H17.8288C17.9054 35.2507 17.9337 35.127 17.9337 34.9361C17.9337 34.7547 17.9054 34.6404 17.8288 34.4784H15.8645V32.3427H17.562ZM46.5318 26.2106C46.5318 25.1615 45.8928 24.437 44.6912 24.1608L43.4802 23.884C42.7746 23.722 42.4794 23.4452 42.4794 22.9786C42.4794 22.4156 42.9276 22.0627 43.8047 22.0627C44.6818 22.0627 45.1966 22.3778 45.3968 23.1212L45.4828 23.4452H46.1691V21.7959C45.3968 21.4048 44.5769 21.2051 43.747 21.2051C42.1166 21.2051 41.0681 21.9867 41.0681 23.2449C41.0681 24.2179 41.6778 24.933 42.8511 25.1904L44.0621 25.4572C44.8343 25.6292 45.1206 25.9343 45.1206 26.4397C45.1206 27.0593 44.6529 27.4027 43.7187 27.4027C42.6603 27.4027 42.1166 26.9828 41.8786 26.1823L41.7544 25.7718H41.0681V27.6412C41.9358 28.0701 42.7651 28.2609 43.8807 28.2609C45.4828 28.2609 46.5318 27.4598 46.5318 26.2106ZM40.4286 25.7912H39.7423L39.6658 26.1251C39.475 26.9734 39.2081 27.2402 38.579 27.2402H37.2537V22.2252H38.1596V21.3954H35.022V22.2252H35.833V27.2402H35.022V28.0701H40.4286V25.7912ZM34.4212 25.7912H33.7345L33.6584 26.1251C33.4676 26.9734 33.2008 27.2402 32.5717 27.2402H31.2459V22.2252H32.1518V21.3954H29.0147V22.2252H29.8252V27.2402H29.0147V28.0701H34.4212V25.7912ZM15.0162 28.0701L13.3376 22.2252H12.5748V21.3954H15.6836V22.2252H14.7871L15.9027 26.2488L17.2375 21.3954H18.611L19.974 26.2583L21.0708 22.2252H20.1366V21.3954H28.2231V23.56H27.5363L27.4697 23.3026C27.2595 22.5015 27.0404 22.2252 26.4018 22.2252H24.8191V24.2368H26.7358C26.8118 24.3988 26.8401 24.5136 26.8401 24.6945C26.8401 24.8853 26.8118 25.0089 26.7358 25.1715H24.8191V27.2402H26.4684C27.0881 27.2402 27.3649 26.9734 27.5557 26.1251L27.6317 25.7912H28.3185V28.0701H22.5879V27.2402H23.3984V22.2252H22.0815L20.4128 28.0701H19.0875L17.7334 23.2266L16.3415 28.0701H15.0162Z" fill="#FEFEFE"/>
</g>
<defs>
<clipPath id="clip0_168_287">
<rect width="42" height="42" fill="white" transform="translate(9 9)"/>
</clipPath>
</defs>
</svg>
