<svg width="60" height="60" viewBox="0 0 60 60" fill="none" xmlns="http://www.w3.org/2000/svg">
<rect width="60" height="60" fill="#0071CE"/>
<g clip-path="url(#clip0_150_697)">
<path d="M30.2136 22.8925C31.1862 22.8925 32.0053 22.3905 32.1119 21.745L33.0761 10.9449C33.0761 9.8754 31.8027 9 30.2136 9C28.6159 9 27.351 9.8754 27.351 10.9449L28.3236 21.745C28.4261 22.3905 29.2408 22.8925 30.2136 22.8925Z" fill="#FFC220"/>
<path d="M24.298 26.272C24.78 25.4283 24.7522 24.4917 24.2319 24.074L15.2304 17.8492C14.294 17.3092 12.8925 17.9525 12.0906 19.3152C11.2907 20.6758 11.4528 22.203 12.37 22.7325L22.3355 27.3014C22.9733 27.5377 23.8073 27.0989 24.298 26.2636" fill="#FFC220"/>
<path d="M36.1279 26.2632C36.6376 27.0985 37.4716 27.5372 38.0923 27.3137L48.0579 22.732C48.9836 22.192 49.1223 20.6796 48.3395 19.319C47.5396 17.9563 46.1296 17.3172 45.1954 17.8466L36.1918 24.0652C35.6926 24.4892 35.6564 25.43 36.1384 26.2716" fill="#FFC220"/>
<path d="M30.2136 36.3832C31.1862 36.3832 32.0053 36.8853 32.1119 37.5308L33.0761 48.3309C33.0761 49.4004 31.8027 50.2673 30.2136 50.2673C28.6159 50.2673 27.351 49.4004 27.351 48.3309L28.3236 37.5308C28.4261 36.8853 29.2408 36.3832 30.2136 36.3832Z" fill="#FFC220"/>
<path d="M36.1279 33.0133C36.6376 32.1758 37.4716 31.7286 38.0923 31.9712L48.0579 36.5444C48.9836 37.0739 49.1223 38.599 48.3395 39.9617C47.5396 41.3138 46.1296 41.9571 45.1954 41.4277L36.1918 35.2007C35.6926 34.781 35.6564 33.8444 36.1384 33.0133" fill="#FFC220"/>
<path d="M24.298 33.004C24.78 33.8456 24.7522 34.7801 24.2319 35.202L15.2304 41.4184C14.294 41.9584 12.8925 41.3129 12.0906 39.9608C11.2907 38.6002 11.4528 37.073 12.37 36.5436L22.3355 31.9704C22.9733 31.7299 23.8073 32.1729 24.298 33.004Z" fill="#FFC220"/>
</g>
<defs>
<clipPath id="clip0_150_697">
<rect width="38" height="42" fill="white" transform="translate(11 9)"/>
</clipPath>
</defs>
</svg>
